<?xml version="1.0" standalone="no"?><!DOCTYPE svg PUBLIC "-//W3C//DTD SVG 1.1//EN" "http://www.w3.org/Graphics/SVG/1.1/DTD/svg11.dtd"><svg t="1617474398754" class="icon" viewBox="0 0 2258 1024" version="1.1" xmlns="http://www.w3.org/2000/svg" p-id="2728" xmlns:xlink="http://www.w3.org/1999/xlink" width="441.015625" height="200"><defs><style type="text/css"></style></defs><path d="M123.216658 644.222247h296.819726V210.972055h-2.80548L123.230685 644.222247z m574.043178 126.59726h-126.00811v233.486027h-151.215342V770.819507H0V611.875068L420.036384 19.694466h151.215342v624.527781h126.00811v126.59726zM1134.115068 0c70.01074 0 127.186411 16.173589 171.527014 48.534795 44.326575 32.347178 78.862027 73.601753 103.606356 123.777753 24.730301 50.161973 41.521096 105.261589 50.400439 165.270794 8.865315 60.009205 13.297973 118.152767 13.297972 174.416658 0 56.26389-4.432658 114.407452-13.297972 174.416658-8.865315 60.009205-25.670137 115.108822-50.400439 165.270794-24.744329 50.176-59.279781 91.430575-103.606356 123.791781C1261.287452 1007.826411 1204.111781 1024 1134.101041 1024c-69.996712 0-127.172384-16.173589-171.512986-48.534795-44.326575-32.347178-78.876055-73.601753-103.606356-123.777753-24.730301-50.161973-41.535123-105.261589-50.400439-165.270794-8.879342-60.009205-13.312-118.152767-13.312-174.416658 0-56.26389 4.432658-114.407452 13.312-174.416658 8.865315-60.009205 25.670137-115.108822 50.400439-165.270794 24.730301-50.176 59.265753-91.430575 103.606356-123.791781C1006.91463 16.173589 1064.118356 0 1134.115068 0z m0 890.375014c34.535452 0 63.473973-10.085699 86.815562-30.243069 23.327562-20.15737 41.773589-47.356493 55.296-81.583342 13.536438-34.226849 23.103123-74.317151 28.714082-120.256877 5.596932-45.953753 8.402411-94.712986 8.402411-146.291726 0-51.57874-2.805479-100.099507-8.416438-145.576329-5.596932-45.490849-15.149589-85.567123-28.700055-120.270904-13.522411-34.689753-31.968438-62.127342-55.296-82.284712-23.341589-20.15737-52.28011-30.243068-86.815562-30.243069-35.46126 0-64.638247 10.085699-87.502904 30.243069-22.864658 20.15737-41.072219 47.594959-54.608657 82.284712-13.536438 34.703781-23.103123 74.780055-28.700055 120.270904-5.610959 45.476822-8.402411 93.997589-8.402411 145.576329 0 51.57874 2.805479 100.337973 8.402411 146.291726 5.610959 45.939726 15.163616 86.030027 28.700055 120.256877 13.536438 34.226849 31.744 61.425973 54.608657 81.583342 22.864658 20.15737 52.041644 30.243068 87.502904 30.243069z m708.467727-462.763836a368.078904 368.078904 0 0 0 78.41315-5.639014c26.133041-4.685151 49.47463-12.891178 69.996713-24.604054a137.201973 137.201973 0 0 0 49.713095-48.534795c12.596603-20.620274 18.894904-45.939726 18.894905-75.958356 0-42.194411-14.223781-75.958356-42.699398-101.277808-28.475616-25.305425-65.101151-37.972164-109.904657-37.972165-28.012712 0-52.28011 5.624986-72.802192 16.874959a149.714411 149.714411 0 0 0-51.115836 45.729315c-13.536438 19.217534-23.566027 40.777644-30.102794 64.694356a244.371288 244.371288 0 0 0-8.402411 73.84022H1584.955616c1.879671-47.819397 10.744986-92.131945 26.609973-132.923617 15.864986-40.791671 37.56537-76.182795 65.101151-106.187397 27.535781-30.01863 60.906959-53.444384 100.113534-70.33337C1815.972822 8.444493 1860.313425 0 1909.774027 0c38.280767 0 75.846137 5.624986 112.710137 16.874959 36.878027 11.249973 70.01074 27.662027 99.412165 49.236164 29.401425 21.56011 52.967452 48.997699 70.698082 82.284713 17.744658 33.287014 26.609973 71.497644 26.609973 114.63189 0 49.699068-11.193863 93.071781-33.595617 130.118137-22.401753 37.032329-57.414137 63.992986-105.009096 80.881973v2.805479c55.99737 11.249973 99.636603 39.150466 130.903671 83.687452 31.281096 44.551014 46.907616 98.696767 46.907617 162.465315 0 46.893589-9.328219 88.849534-27.998685 125.895891a285.555726 285.555726 0 0 1-75.607671 94.236054c-31.744 25.796384-68.608 45.729315-110.620055 59.784768-41.998027 14.069479-86.33863 21.097205-133.007781 21.097205-56.937205 0-106.636274-8.206027-149.111233-24.618082-42.474959-16.412055-77.936219-39.61337-106.411835-69.617973-28.475616-30.01863-50.176-66.111123-65.101151-108.319561-14.939178-42.194411-22.864658-89.073973-23.804493-140.652713h159.617753c-1.865644 60.009205 12.835068 109.94674 44.102137 149.812603 31.267068 39.837808 78.174685 59.756712 140.708822 59.756712 53.205918 0 97.770959-15.219726 133.709151-45.70126 35.938192-30.481534 53.907288-73.840219 53.907287-130.10411 0-38.449096-7.462575-68.93063-22.401753-91.430575a145.099397 145.099397 0 0 0-58.802849-51.340274c-24.267397-11.726904-51.564712-18.993096-81.92-21.812603a763.483178 763.483178 0 0 0-93.099836-2.805479v-119.555507z" p-id="2729" fill="#1296db"></path></svg>