<?xml version="1.0" standalone="no"?><!DOCTYPE svg PUBLIC "-//W3C//DTD SVG 1.1//EN" "http://www.w3.org/Graphics/SVG/1.1/DTD/svg11.dtd"><svg t="1617031699275" class="icon" viewBox="0 0 2486 1024" version="1.1" xmlns="http://www.w3.org/2000/svg" p-id="3448" xmlns:xlink="http://www.w3.org/1999/xlink" width="485.546875" height="200"><defs><style type="text/css"></style></defs><path d="M1276.342857 15.798857c239.908571 0 397.897143 200.265143 409.014857 454.656l0.585143 31.012572c0 267.849143-160.914286 485.814857-409.6 485.814857-254.244571 0-412.964571-200.850286-423.643428-455.68l-0.585143-30.134857c0-267.702857 175.542857-485.668571 424.228571-485.668572z m-658.285714 1.316572c58.514286 0 117.028571 51.638857 117.028571 118.198857v434.907428h29.257143c43.885714 0 102.4 46.957714 102.4 105.472 0 59.099429-58.514286 104.301714-102.4 104.301715h-29.257143v81.334857c0 66.56-58.514286 118.198857-117.028571 118.198857s-117.028571-52.077714-117.028572-118.198857v-81.334857h-336.457142c-58.514286 0-117.028571-47.835429-117.028572-115.712 0-41.984 21.504-75.483429 46.08-107.52l12.434286-15.945143L486.4 92.16c14.628571-21.942857 29.257143-41.252571 58.514286-54.710857 14.628571-13.750857 43.885714-20.333714 73.142857-20.333714z m1623.771428 0c58.514286 0 117.028571 51.638857 117.028572 118.198857v434.907428h14.628571c58.514286 0 102.4 46.957714 102.4 105.472 0 59.099429-43.885714 104.301714-102.4 104.301715h-14.628571v81.334857c0 66.56-58.514286 118.198857-117.028572 118.198857-73.142857 0-117.028571-52.077714-117.028571-118.198857v-81.334857h-336.457143c-58.514286 0-117.028571-47.835429-117.028571-115.712 0-40.96 10.24-73.581714 30.427428-104.740572l13.458286-18.724571 380.342857-448.658286c11.702857-8.777143 21.065143-17.115429 28.964572-24.868571l29.549714-29.842286c29.257143-13.750857 58.514286-20.333714 87.771428-20.333714z m-965.485714 226.304c-58.514286 0-87.771429 24.283429-117.028571 68.315428-25.6 39.058286-51.2 93.622857-57.197715 158.72l-1.316571 31.012572c0 77.677714 29.257143 143.36 58.514286 188.562285 29.257143 44.763429 58.514286 69.632 117.028571 69.632 43.885714 0 87.771429-24.576 117.028572-68.754285 25.6-39.204571 39.936-93.769143 43.154285-158.427429l0.731429-31.012571c0-76.8-14.628571-142.482286-43.885714-187.977143-29.257143-45.202286-73.142857-70.070857-117.028572-70.070857z m-775.314286 143.945142l-146.285714 182.857143h146.285714v-182.857143z m1623.771429 0l-160.914286 182.857143h160.914286v-182.857143z" fill="#1296db" p-id="3449"></path></svg>