<?xml version="1.0" standalone="no"?><!DOCTYPE svg PUBLIC "-//W3C//DTD SVG 1.1//EN" "http://www.w3.org/Graphics/SVG/1.1/DTD/svg11.dtd"><svg t="1617032242433" class="icon" viewBox="0 0 1024 1024" version="1.1" xmlns="http://www.w3.org/2000/svg" p-id="5727" xmlns:xlink="http://www.w3.org/1999/xlink" width="200" height="200"><defs><style type="text/css"></style></defs><path d="M960 132c3.873 0 4.826 0.919 5.749 1.808 1.035 0.998 1.251 1.205 1.251 3.192v750c0 1.987-0.216 2.194-1.251 3.192-0.923 0.889-1.876 1.808-5.749 1.808H64c-3.873 0-4.826-0.919-5.749-1.808C57.215 889.194 57 888.987 57 887V137c0-1.987 0.215-2.195 1.251-3.192 0.923-0.889 1.876-1.808 5.749-1.808h896m0-40H64c-13.33 0-24.5 4.33-33.5 13S17 124.33 17 137v750c0 12.67 4.5 23.33 13.5 32s20.17 13 33.5 13h896c13.33 0 24.5-4.33 33.5-13s13.5-19.33 13.5-32V137c0-12.67-4.5-23.33-13.5-32S973.33 92 960 92z" p-id="5728" fill="#1296db"></path><path d="M630 137c13.33 0 24.17 4.33 32.5 13s12.5 19.17 12.5 31.5-4.17 22.83-12.5 31.5-19.17 13-32.5 13-24.33-4.33-33-13-13-19.17-13-31.5 4.33-22.83 13-31.5 19.67-13 33-13m0-40c-23.924 0-45.115 8.546-61.284 24.716C552.547 137.885 544 158.558 544 181.5s8.547 43.615 24.716 59.784C584.885 257.454 606.076 266 630 266c24.237 0 45.449-8.744 61.344-25.287C706.819 224.606 715 204.13 715 181.5s-8.181-43.106-23.656-59.213C675.449 105.744 654.237 97 630 97z" p-id="5729" fill="#1296db"></path><path d="M768 137c13.33 0 24.5 4.33 33.5 13s13.5 19.17 13.5 31.5-4.5 22.83-13.5 31.5-19.83 13-32.5 13-23.5-4.33-32.5-13-13.5-19.17-13.5-31.5 4.5-22.83 13.5-31.5 19.5-13 31.5-13m0-40c-22.333 0-42.821 8.366-59.251 24.192C691.904 137.419 683 158.273 683 181.5s8.904 44.081 25.749 60.308C725.179 257.634 746.013 266 769 266s43.821-8.366 60.251-24.192C846.096 225.581 855 204.727 855 181.5s-8.904-44.081-25.749-60.308C812.821 105.366 791.642 97 768 97z" p-id="5730" fill="#1296db"></path><path d="M908 137c13.33 0 24.33 4.33 33 13s13 19.17 13 31.5-4.33 22.83-13 31.5-19.67 13-33 13-24.17-4.33-32.5-13-12.5-19.17-12.5-31.5 4.17-22.83 12.5-31.5 19.17-13 32.5-13m0-40c-24.237 0-45.449 8.744-61.344 25.287C831.181 138.394 823 158.87 823 181.5s8.181 43.106 23.656 59.213C862.551 257.256 883.763 266 908 266c23.924 0 45.115-8.546 61.284-24.716C985.453 225.115 994 204.442 994 181.5s-8.547-43.615-24.716-59.784C953.115 105.546 931.924 97 908 97zM47.616 119.113H565.09v148.493H47.616z" p-id="5731" fill="#1296db"></path><path d="M551.591 226H977.57v41.605H551.591zM179.968 637.068c9.094 35.156 24.719 54.688 46.875 58.594 22.125 3.906 40.039 1.648 53.711-6.836 13.672-8.453 23.438-19.531 29.297-33.203s8.454-28.961 7.813-45.898c-0.671-16.906-5.218-31.25-13.672-42.969-8.484-11.719-19.226-19.531-32.227-23.438-13.031-3.906-27.679-3.906-43.945 0-16.296 3.906-29.632 13.031-40.039 27.344l-33.203-3.906c2.594-7.813 14.954-63.781 37.109-167.968h154.297v35.156h-125c-6.531 35.156-13.031 63.171-19.531 83.984 19.531-9.094 37.75-13.336 54.688-12.695 16.907 0.671 33.203 4.578 48.828 11.718 15.625 7.172 27.008 16.938 34.18 29.297 7.141 12.391 12.36 24.75 15.625 37.109 3.235 12.391 4.547 25.727 3.906 40.039-0.671 14.344-3.601 28.992-8.789 43.945-5.218 14.984-13.031 27.344-23.438 37.109-10.437 9.766-23.132 17.578-38.086 23.438-14.984 5.859-32.227 8.148-51.758 6.836-19.531-1.281-38.086-8.453-55.664-21.484-17.578-13-29.632-35.156-36.133-66.406l35.156-9.766zM404.578 542.342c1.282-34.484 6.165-61.828 14.648-82.031 8.454-20.172 20.508-36.774 36.133-49.805 15.625-13 34.821-19.531 57.618-19.531 22.766 0 42.633 9.46 59.57 28.32 16.906 18.89 27.984 42.664 33.203 71.289 5.188 28.656 6.836 61.523 4.883 98.632s-8.484 67.383-19.531 90.82c-11.078 23.438-27.68 39.734-49.805 48.828-22.156 9.125-44.281 8.148-66.406-2.93-22.156-11.047-37.781-25.695-46.875-43.945-9.125-18.219-15.625-37.414-19.531-57.617-3.907-20.171-5.219-47.515-3.907-82.03z m41.015-11.719c-3.906 35.828-2.625 67.719 3.906 95.703 6.5 28.016 17.243 47.852 32.227 59.57 14.953 11.719 30.273 14.008 45.898 6.836 15.625-7.141 27.008-21.484 34.18-42.969 7.141-21.484 10.742-44.922 10.742-70.313s-0.977-48.492-2.93-69.335c-1.953-20.813-7.813-39.704-17.578-56.641-9.766-16.907-22.797-25.696-39.063-26.367-16.297-0.641-30.609 7.507-42.969 24.414-12.389 16.938-20.506 43.305-24.413 79.102zM654.578 542.342c1.281-34.484 6.164-61.828 14.648-82.031 8.453-20.172 20.508-36.774 36.133-49.805 15.625-13 34.82-19.531 57.617-19.531 22.766 0 42.633 9.46 59.57 28.32 16.906 18.89 27.984 42.664 33.203 71.289 5.188 28.656 6.836 61.523 4.883 98.632s-8.484 67.383-19.531 90.82c-11.078 23.438-27.68 39.734-49.805 48.828-22.156 9.125-44.281 8.148-66.406-2.93-22.156-11.047-37.781-25.695-46.875-43.945-9.125-18.219-15.625-37.414-19.531-57.617-3.906-20.171-5.218-47.515-3.906-82.03z m41.016-11.719c-3.906 35.828-2.625 67.719 3.906 95.703 6.5 28.016 17.242 47.852 32.227 59.57 14.953 11.719 30.273 14.008 45.898 6.836 15.625-7.141 27.008-21.484 34.18-42.969 7.141-21.484 10.742-44.922 10.742-70.313s-0.977-48.492-2.93-69.335c-1.953-20.813-7.813-39.704-17.578-56.641-9.766-16.907-22.797-25.696-39.063-26.367-16.297-0.641-30.609 7.507-42.969 24.414-12.39 16.938-20.507 43.305-24.413 79.102z" p-id="5732" fill="#1296db"></path></svg>